<?xml version="1.0" encoding="utf-8"?>
<!-- Generator: Adobe Illustrator 22.1.0, SVG Export Plug-In . SVG Version: 6.00 Build 0)  -->
<svg version="1.1" id="Layer_1" xmlns="http://www.w3.org/2000/svg" xmlns:xlink="http://www.w3.org/1999/xlink" x="0px" y="0px"
	 viewBox="0 0 1024 1024" style="enable-background:new 0 0 1024 1024;" xml:space="preserve">
<style type="text/css">
	.st0{display:none;fill:#7B7B7B;}
	.st1{fill:#FFFFFF;}
</style>
<path class="st0" d="M1021.7,512.9c0,144,0,288,0,432c0,19.2-5.3,36.4-18.1,51c-14.7,16.7-33.4,25.6-55.4,25.6
	c-290.2,0.2-580.3,0.3-870.5,0c-40.2,0-69.3-31.1-72.6-64.7c-0.4-4-0.8-8-0.8-11.9c0-288.2,0-576.3,0-864.5
	C4.4,41.9,26.8,14.1,64.5,6c4.5-1,9.2-1.5,13.8-1.5c289.7-0.1,579.3-0.1,869-0.1c35.4,0,65.2,23.7,72.7,58.2
	c1.3,6.1,1.6,12.5,1.6,18.8C1021.7,225.2,1021.7,369.1,1021.7,512.9z M546.8,451.6c-0.4-0.1-0.8-0.1-1.2-0.2c-0.1-1.7-0.3-3.4-0.3-5
	c0-18.2,0-36.3,0-54.5c0-7,0-7.1-6.9-7.1c-44,0-88,0-132,0c-6.6,0-6.7,0.2-6.7,6.7c0,157.8,0,315.6,0,473.4c0,6.4,0,6.5,6.7,6.5
	c45.8,0,91.7,0,137.5,0c8.2,0,7.4,1,7.4-7.5c0.3-85.1,0.5-170.2,1-255.4c0.1-17,3.2-33.6,9-49.7c8.5-23.8,23.9-40.8,48.7-47.9
	c14.3-4.1,28.9-5.3,43.8-3.7c26,2.9,44.7,15.6,55,39.9c8.7,20.6,10.8,42.3,10.9,64.3c0.2,84.5,0.1,169,0.1,253.5
	c0,6.5,0,6.5,6.6,6.5c46.7,0,93.3,0,140,0c1.9,0,3.8,0,6.1,0c0-3,0-5.2,0-7.3c0-61.3,0.1-122.6,0-184c-0.1-37.8-0.2-75.6-1.2-113.4
	c-0.4-16.5-2.5-33.1-5-49.4c-4-25.7-11.2-50.4-24.7-73c-16.8-28.2-40.5-47.8-71.5-58.8c-27.6-9.8-55.9-12.7-85-12
	c-28.6,0.6-55.4,7.4-80.3,21.3c-20.6,11.5-38,26.7-51.2,46.5C551.2,444.7,549,448.1,546.8,451.6z M154.6,871.4c2.8,0,4.6,0,6.4,0
	c46.2,0,92.3,0,138.5,0c6.7,0,6.7,0,6.7-6.9c0-157.5,0-315,0-472.4c0-7.2,0-7.3-7.2-7.3c-45.8,0-91.7,0-137.5,0
	c-6.9,0-6.9,0-6.9,6.7c0,157.8,0,315.6,0,473.4C154.6,866.9,154.6,868.8,154.6,871.4z M230.7,143.6c-48.2-1-88.3,40-88.2,87.6
	c0.1,48.7,38,88.8,87.8,88.6c50.6-0.2,88.6-38.8,88.6-88.5C319,182.1,279,143.4,230.7,143.6z"/>
<path class="st1" d="M391.4,862.1c0,28.7,0.6,58.5-0.2,88.2C390.7,967,375,975,356.5,969c-38.9-12.7-75.8-30.1-109.4-53.3
	C100.7,814.5,26.6,674.7,34.8,496.9C45,277.8,203.7,100.6,420.3,58.3c227.7-44.5,456.8,84,537.1,301.2
	c91.5,247.7-40.8,524.4-291.1,608.8c-24.3,8.2-37.9-1.6-37.9-27.4c0-37-0.1-73.9,0.4-110.9c0.5-35.9-3.9-70.1-30.9-98.7
	c17.2-3.2,33.1-5.3,48.7-9.1c16-4,32.2-8.4,47.4-14.6c69.2-28,104.7-82,115.7-153.9c4.7-30.6,6.7-61.4,0.9-92.3
	c-5.8-31.1-18.7-58.8-39.1-82.8c-4.6-5.4-5.8-9.7-3.6-17c11.1-37.1,7.8-73.8-5.8-109.7c-1.3-3.4-7.7-7-11.8-7
	c-22.7-0.3-43.8,7.1-63.9,16.9c-17.2,8.5-33.5,18.8-50.5,27.7c-4.1,2.2-10,3.4-14.4,2.4c-74.3-18.1-148.6-18.1-222.9-0.1
	c-4.7,1.1-11.2-0.2-15.3-2.8c-31.3-19.2-63-37.1-99.9-43.3c-21.9-3.7-24.2-2.5-30.2,18.6c-9.5,33.3-11,66.7-0.7,100.3
	c1,3.4-0.4,8.9-2.7,11.7c-35.3,42-47.4,90.6-43.2,144.5c2.3,29.9,6.8,59.1,18.1,87.1c25,61.9,73.6,95.5,136,111.8
	c16.4,4.3,33.2,6.5,49.9,9.7c3.2,0.6,6.3,1.3,11,2.3c-16.1,17.2-24.2,36.7-28.4,58.2c-0.5,2.8-4.4,5.7-7.4,7
	c-53.2,22.3-100.1,7.5-131.1-41.2c-15.3-24.1-35.4-42.2-64.2-48c-6.5-1.3-13.6-1.3-20.1-0.2c-11.9,2.1-13.7,8.3-5.4,16.9
	c3.1,3.2,6.6,6.4,10.4,8.7c25.5,15.1,41.7,38,52.6,64.7c17.9,44.1,52.5,63.8,97.5,66.9C346.5,865.9,368.1,863.1,391.4,862.1z"/>
<path class="st1" d="M341.6,811.2c4.6,4.3,7.5,7,10.4,9.7c-3.4,2.3-6.7,6.2-10.2,6.5c-2.9,0.2-6.2-3.8-9.4-5.9
	C335,818.6,337.6,815.7,341.6,811.2z"/>
<path class="st1" d="M282.9,797.6c-5.5,3.3-9,6.6-10.2,5.9c-4-2.5-7.4-6.1-10.4-9.8c-0.3-0.3,4.4-6.2,5.2-5.8
	C272,790,276.1,793.1,282.9,797.6z"/>
<path class="st1" d="M303.3,824.4c-3.8-4.4-6.6-7.7-9.4-11.1c2.8-1.8,6.5-5.6,8.3-4.9c4.1,1.8,7.3,5.7,10.8,8.8
	C310.3,819.2,307.7,821.2,303.3,824.4z"/>
<path class="st1" d="M379.6,807.2c3.9,3.6,6.3,5.9,8.8,8.2c-3.9,2.7-7.6,6.4-11.9,7.7c-1.8,0.5-5.1-3.9-7.7-6.1
	C372,814,375.3,811.1,379.6,807.2z"/>
<path class="st1" d="M245.8,757.2c3.7,6.2,6.4,9.8,7.8,13.9c0.3,1-3.9,3.5-6,5.4c-2.6-3.6-5.8-7-7.6-10.9
	C239.4,764.5,242.5,761.7,245.8,757.2z"/>
<path class="st1" d="M237.6,745.5c-4.6,2.2-7.6,4.5-8.4,3.9c-3-2.1-5.5-5.2-7.6-8.3c-0.3-0.4,3.9-4.7,4.3-4.5
	C229.4,738.7,232.5,741.5,237.6,745.5z"/>
</svg>
