<?xml version="1.0" encoding="utf-8"?>
<!-- Generator: Adobe Illustrator 22.1.0, SVG Export Plug-In . SVG Version: 6.00 Build 0)  -->
<svg version="1.1" id="Layer_1" xmlns="http://www.w3.org/2000/svg" xmlns:xlink="http://www.w3.org/1999/xlink" x="0px" y="0px"
	 viewBox="0 0 1024 1024" style="enable-background:new 0 0 1024 1024;" xml:space="preserve">
<style type="text/css">
	.st0{display:none;fill:#7B7B7B;}
	.st1{fill:#FFFFFF;}
</style>
<path class="st0" d="M1021.7,512.9c0,144,0,288,0,432c0,19.2-5.3,36.4-18.1,51c-14.7,16.7-33.4,25.6-55.4,25.6
	c-290.2,0.2-580.3,0.3-870.5,0c-40.2,0-69.3-31.1-72.6-64.7c-0.4-4-0.8-8-0.8-11.9c0-288.2,0-576.3,0-864.5
	C4.4,41.9,26.8,14.1,64.5,6c4.5-1,9.2-1.5,13.8-1.5c289.7-0.1,579.3-0.1,869-0.1c35.4,0,65.2,23.7,72.7,58.2
	c1.3,6.1,1.6,12.5,1.6,18.8C1021.7,225.2,1021.7,369.1,1021.7,512.9z M546.8,451.6c-0.4-0.1-0.8-0.1-1.2-0.2c-0.1-1.7-0.3-3.4-0.3-5
	c0-18.2,0-36.3,0-54.5c0-7,0-7.1-6.9-7.1c-44,0-88,0-132,0c-6.6,0-6.7,0.2-6.7,6.7c0,157.8,0,315.6,0,473.4c0,6.4,0,6.5,6.7,6.5
	c45.8,0,91.7,0,137.5,0c8.2,0,7.4,1,7.4-7.5c0.3-85.1,0.5-170.2,1-255.4c0.1-17,3.2-33.6,9-49.7c8.5-23.8,23.9-40.8,48.7-47.9
	c14.3-4.1,28.9-5.3,43.8-3.7c26,2.9,44.7,15.6,55,39.9c8.7,20.6,10.8,42.3,10.9,64.3c0.2,84.5,0.1,169,0.1,253.5
	c0,6.5,0,6.5,6.6,6.5c46.7,0,93.3,0,140,0c1.9,0,3.8,0,6.1,0c0-3,0-5.2,0-7.3c0-61.3,0.1-122.6,0-184c-0.1-37.8-0.2-75.6-1.2-113.4
	c-0.4-16.5-2.5-33.1-5-49.4c-4-25.7-11.2-50.4-24.7-73c-16.8-28.2-40.5-47.8-71.5-58.8c-27.6-9.8-55.9-12.7-85-12
	c-28.6,0.6-55.4,7.4-80.3,21.3c-20.6,11.5-38,26.7-51.2,46.5C551.2,444.7,549,448.1,546.8,451.6z M154.6,871.4c2.8,0,4.6,0,6.4,0
	c46.2,0,92.3,0,138.5,0c6.7,0,6.7,0,6.7-6.9c0-157.5,0-315,0-472.4c0-7.2,0-7.3-7.2-7.3c-45.8,0-91.7,0-137.5,0
	c-6.9,0-6.9,0-6.9,6.7c0,157.8,0,315.6,0,473.4C154.6,866.9,154.6,868.8,154.6,871.4z M230.7,143.6c-48.2-1-88.3,40-88.2,87.6
	c0.1,48.7,38,88.8,87.8,88.6c50.6-0.2,88.6-38.8,88.6-88.5C319,182.1,279,143.4,230.7,143.6z"/>
<g>
	<path class="st1" d="M1012,511.4c-2.4,78.3-0.5,156.8-5.8,235c-5.9,88.1-41.6,162.2-116.5,213.6c-42.8,29.4-91.3,44.5-142.4,47.5
		c-157.6,9.1-315.4,10.2-472.9-0.2c-97.7-6.5-176.6-49.8-225.5-138.4C22.2,820.4,12.4,767.2,12,712.8c-1.1-133.8-1-267.7,0-401.5
		c0.4-53.9,10.1-106.6,36-154.9C89,80,153.9,35.2,238.4,21.6c46.5-7.5,94.1-9.9,141.3-10.3c109-0.9,218,0.2,327,1.6
		c55.4,0.7,109.6,9.7,159.2,36.3c75.8,40.7,120.9,105,134.6,188.9c7.8,47.8,8.9,96.9,10.8,145.6c1.7,42.5,0.4,85.1,0.4,127.6
		C1012.4,511.3,1011.2,511.4,1012,511.4z M921.4,511.4c-0.5,0-0.1,0-0.6,0c0-43,0.7-86.1-0.2-129c-0.8-36.7-1.7-73.7-5.9-110.1
		c-10-87.2-57.4-142.1-140-160.1c-32.9-7.2-67.3-9.5-101-9.8c-109-1.2-217.9-0.8-326.9-0.2c-25.7,0.1-51.6,2.2-77.2,5.4
		c-86.3,11-140.9,57.8-158.7,140c-7.4,34.2-9.5,70.1-10,105.3c-1.2,105.1-0.8,210.3-0.2,315.4c0.2,28.1,2,56.4,5.5,84.3
		c10.9,86.3,57.8,140.9,140,158.6c34.2,7.4,70.1,9.5,105.3,10c105.1,1.2,210.3,0.8,315.4,0.2c27.7-0.2,55.4-2.2,82.9-5.4
		c55-6.4,102-28.3,134-75.6c23.5-34.8,32.2-74.5,33.6-115.4C920.1,653.8,919.9,582.6,921.4,511.4z"/>
	<path class="st1" d="M510.5,254c141.2,0,257.5,116.1,257.7,257.3c0.2,141.7-116.6,258.5-258.4,258.1
		c-141.2-0.4-257.2-116.8-257-258C253,370.1,369.3,254,510.5,254z M677.3,511.4c-0.1-92.4-74.3-166.5-166.7-166.5
		c-92.5,0-166.7,73.9-166.9,166.4c-0.2,93,74.4,167.6,167.5,167.3C603.6,678.1,677.5,603.8,677.3,511.4z"/>
	<path class="st1" d="M838,243.9c0.1,33.1-26.9,60.4-59.8,60.5c-32.4,0.1-60.4-27.7-60.5-60.2c-0.1-32.8,27.2-60,60.2-60.1
		C811.2,184,838,210.6,838,243.9z"/>
</g>
</svg>
